<mxfile host="app.diagrams.net" modified="2023-05-06T07:48:36.228Z" agent="Mozilla/5.0 (Windows NT 10.0; Win64; x64) AppleWebKit/537.36 (KHTML, like Gecko) Chrome/112.0.0.0 Safari/537.36 Edg/112.0.1722.68" etag="Z0qMkTdtTtlS1s_C5Dw5" version="21.2.9" type="device">
  <diagram name="Page-1" id="wj4ayQtduhhPh5t2k7u7">
    <mxGraphModel dx="418" dy="268" grid="1" gridSize="10" guides="1" tooltips="1" connect="1" arrows="1" fold="1" page="1" pageScale="1" pageWidth="850" pageHeight="1100" math="0" shadow="0">
      <root>
        <mxCell id="0" />
        <mxCell id="1" parent="0" />
        <mxCell id="5y8A6sveNSrJVnXWuDZ5-1" value="SqliteDAO" style="swimlane;whiteSpace=wrap;html=1;" vertex="1" parent="1">
          <mxGeometry x="250" y="30" width="280" height="210" as="geometry" />
        </mxCell>
        <mxCell id="5y8A6sveNSrJVnXWuDZ5-2" value="+ mqtt_broker&lt;br&gt;+ mqtt_port&lt;br&gt;+ topic" style="text;html=1;strokeColor=none;fillColor=none;align=left;verticalAlign=top;whiteSpace=wrap;rounded=0;horizontal=1;" vertex="1" parent="5y8A6sveNSrJVnXWuDZ5-1">
          <mxGeometry y="20" width="280" height="80" as="geometry" />
        </mxCell>
        <mxCell id="5y8A6sveNSrJVnXWuDZ5-3" value="+ __init__(self, __mqtt_broker = &quot;localhost&quot;, __mqtt_port = 1883, __topic = &quot;Year3/Gateway&quot;): void&lt;br&gt;+ connect_mqtt(self): void&lt;br&gt;+ publish(self, client):&lt;br&gt;+ run(self): void" style="text;html=1;strokeColor=none;fillColor=none;align=left;verticalAlign=top;whiteSpace=wrap;rounded=0;horizontal=1;" vertex="1" parent="5y8A6sveNSrJVnXWuDZ5-1">
          <mxGeometry y="100" width="280" height="100" as="geometry" />
        </mxCell>
        <mxCell id="5y8A6sveNSrJVnXWuDZ5-4" value="" style="endArrow=none;html=1;rounded=0;exitX=0;exitY=1;exitDx=0;exitDy=0;" edge="1" parent="5y8A6sveNSrJVnXWuDZ5-1" source="5y8A6sveNSrJVnXWuDZ5-2">
          <mxGeometry width="50" height="50" relative="1" as="geometry">
            <mxPoint x="110" y="140" as="sourcePoint" />
            <mxPoint x="280" y="100" as="targetPoint" />
            <Array as="points" />
          </mxGeometry>
        </mxCell>
      </root>
    </mxGraphModel>
  </diagram>
</mxfile>
